<mxfile host="app.diagrams.net" agent="Mozilla/5.0 (Windows NT 10.0; Win64; x64) AppleWebKit/537.36 (KHTML, like Gecko) Chrome/131.0.0.0 Safari/537.36" version="25.0.1">
  <diagram name="Page-1" id="9f46799a-70d6-7492-0946-bef42562c5a5">
    <mxGraphModel grid="1" page="1" gridSize="10" guides="1" tooltips="1" connect="1" arrows="1" fold="1" pageScale="1" pageWidth="1100" pageHeight="850" background="none" math="0" shadow="0">
      <root>
        <mxCell id="0" />
        <mxCell id="1" parent="0" />
        <mxCell id="DxpoUcVML3-7-af25Dol-1" value="&lt;b&gt;Start Game Screen&lt;/b&gt;" style="rounded=1;whiteSpace=wrap;html=1;fillColor=#d5e8d4;strokeColor=#82b366;" vertex="1" parent="1">
          <mxGeometry x="425" y="130" width="120" height="60" as="geometry" />
        </mxCell>
        <mxCell id="DxpoUcVML3-7-af25Dol-7" value="&lt;b&gt;Start Game or Exit&lt;/b&gt;" style="ellipse;whiteSpace=wrap;html=1;fillColor=#fff2cc;strokeColor=#d6b656;" vertex="1" parent="1">
          <mxGeometry x="450" y="280" width="70" height="50" as="geometry" />
        </mxCell>
        <mxCell id="DxpoUcVML3-7-af25Dol-10" value="&lt;b&gt;Exit&lt;/b&gt;" style="ellipse;whiteSpace=wrap;html=1;fillColor=#fff2cc;strokeColor=#d6b656;" vertex="1" parent="1">
          <mxGeometry x="680" y="277.5" width="70" height="55" as="geometry" />
        </mxCell>
        <mxCell id="DxpoUcVML3-7-af25Dol-15" value="&lt;b&gt;Close Application&lt;/b&gt;" style="rounded=1;whiteSpace=wrap;html=1;fillColor=#d5e8d4;strokeColor=#82b366;" vertex="1" parent="1">
          <mxGeometry x="780" y="500" width="120" height="60" as="geometry" />
        </mxCell>
        <mxCell id="DxpoUcVML3-7-af25Dol-17" value="&lt;b&gt;Run Game&lt;/b&gt;" style="rounded=1;whiteSpace=wrap;html=1;fillColor=#d5e8d4;strokeColor=#82b366;" vertex="1" parent="1">
          <mxGeometry x="425" y="430" width="120" height="60" as="geometry" />
        </mxCell>
        <mxCell id="xm0PBFxwntleR4CPkUEE-1" value="&lt;b&gt;TIC-TAC-TOE&lt;/b&gt;" style="rounded=1;whiteSpace=wrap;html=1;fillColor=#d5e8d4;strokeColor=#82b366;" vertex="1" parent="1">
          <mxGeometry x="230" y="680" width="120" height="60" as="geometry" />
        </mxCell>
        <mxCell id="mKOPIU4uKvKC9GVuO_rV-5" style="edgeStyle=orthogonalEdgeStyle;rounded=0;orthogonalLoop=1;jettySize=auto;html=1;entryX=0.5;entryY=0;entryDx=0;entryDy=0;" edge="1" parent="1" source="G4_ow6YmFgUokgy3-2_S-2" target="xm0PBFxwntleR4CPkUEE-1">
          <mxGeometry relative="1" as="geometry" />
        </mxCell>
        <mxCell id="G4_ow6YmFgUokgy3-2_S-2" value="&lt;b&gt;Collide with Boss&lt;/b&gt;" style="rounded=1;whiteSpace=wrap;html=1;fillColor=#d5e8d4;strokeColor=#82b366;" vertex="1" parent="1">
          <mxGeometry x="230" y="580" width="120" height="60" as="geometry" />
        </mxCell>
        <mxCell id="mKOPIU4uKvKC9GVuO_rV-4" style="edgeStyle=orthogonalEdgeStyle;rounded=0;orthogonalLoop=1;jettySize=auto;html=1;entryX=1;entryY=0.5;entryDx=0;entryDy=0;" edge="1" parent="1" source="G4_ow6YmFgUokgy3-2_S-14" target="DxpoUcVML3-7-af25Dol-17">
          <mxGeometry relative="1" as="geometry">
            <Array as="points">
              <mxPoint x="485" y="800" />
              <mxPoint x="640" y="800" />
              <mxPoint x="640" y="460" />
            </Array>
          </mxGeometry>
        </mxCell>
        <mxCell id="G4_ow6YmFgUokgy3-2_S-14" value="&lt;b&gt;Player&lt;/b&gt;" style="rounded=1;whiteSpace=wrap;html=1;fillColor=#d5e8d4;strokeColor=#82b366;" vertex="1" parent="1">
          <mxGeometry x="425" y="580" width="120" height="60" as="geometry" />
        </mxCell>
        <mxCell id="mKOPIU4uKvKC9GVuO_rV-7" style="edgeStyle=orthogonalEdgeStyle;rounded=0;orthogonalLoop=1;jettySize=auto;html=1;entryX=0;entryY=0.5;entryDx=0;entryDy=0;exitX=0.625;exitY=0.2;exitDx=0;exitDy=0;exitPerimeter=0;" edge="1" parent="1" source="G4_ow6YmFgUokgy3-2_S-28" target="DxpoUcVML3-7-af25Dol-17">
          <mxGeometry relative="1" as="geometry">
            <Array as="points">
              <mxPoint x="30" y="695" />
              <mxPoint x="30" y="460" />
            </Array>
          </mxGeometry>
        </mxCell>
        <mxCell id="G4_ow6YmFgUokgy3-2_S-28" value="Win" style="ellipse;shape=cloud;whiteSpace=wrap;html=1;fillColor=#fff2cc;strokeColor=#d6b656;" vertex="1" parent="1">
          <mxGeometry x="40" y="685" width="90" height="50" as="geometry" />
        </mxCell>
        <mxCell id="mKOPIU4uKvKC9GVuO_rV-9" value="" style="edgeStyle=orthogonalEdgeStyle;rounded=0;orthogonalLoop=1;jettySize=auto;html=1;" edge="1" parent="1" source="G4_ow6YmFgUokgy3-2_S-30" target="G4_ow6YmFgUokgy3-2_S-81">
          <mxGeometry relative="1" as="geometry" />
        </mxCell>
        <mxCell id="G4_ow6YmFgUokgy3-2_S-30" value="Lose" style="ellipse;shape=cloud;whiteSpace=wrap;html=1;fillColor=#ffe6cc;strokeColor=#d79b00;" vertex="1" parent="1">
          <mxGeometry x="230" y="815" width="70" height="50" as="geometry" />
        </mxCell>
        <mxCell id="G4_ow6YmFgUokgy3-2_S-39" value="" style="endArrow=classic;html=1;rounded=0;exitX=0.5;exitY=1;exitDx=0;exitDy=0;entryX=0.5;entryY=0;entryDx=0;entryDy=0;fillColor=#ffcccc;strokeColor=#36393d;" edge="1" parent="1" source="DxpoUcVML3-7-af25Dol-7" target="DxpoUcVML3-7-af25Dol-17">
          <mxGeometry width="50" height="50" relative="1" as="geometry">
            <mxPoint x="340" y="550" as="sourcePoint" />
            <mxPoint x="390" y="500" as="targetPoint" />
          </mxGeometry>
        </mxCell>
        <mxCell id="G4_ow6YmFgUokgy3-2_S-41" value="" style="endArrow=classic;html=1;rounded=0;exitX=0.5;exitY=1;exitDx=0;exitDy=0;entryX=0.5;entryY=0;entryDx=0;entryDy=0;" edge="1" parent="1" source="DxpoUcVML3-7-af25Dol-17" target="G4_ow6YmFgUokgy3-2_S-14">
          <mxGeometry width="50" height="50" relative="1" as="geometry">
            <mxPoint x="480" y="720" as="sourcePoint" />
            <mxPoint x="490" y="545" as="targetPoint" />
          </mxGeometry>
        </mxCell>
        <mxCell id="G4_ow6YmFgUokgy3-2_S-48" value="" style="endArrow=classic;html=1;rounded=0;exitX=0.5;exitY=1;exitDx=0;exitDy=0;entryX=0.5;entryY=0;entryDx=0;entryDy=0;fillColor=#ffcccc;strokeColor=#373e39;curved=0;" edge="1" parent="1" source="DxpoUcVML3-7-af25Dol-1" target="DxpoUcVML3-7-af25Dol-7">
          <mxGeometry width="50" height="50" relative="1" as="geometry">
            <mxPoint x="450" y="450" as="sourcePoint" />
            <mxPoint x="500" y="400" as="targetPoint" />
          </mxGeometry>
        </mxCell>
        <mxCell id="G4_ow6YmFgUokgy3-2_S-65" value="" style="endArrow=classic;html=1;rounded=0;exitX=1;exitY=0.5;exitDx=0;exitDy=0;entryX=0;entryY=0.5;entryDx=0;entryDy=0;" edge="1" parent="1" source="DxpoUcVML3-7-af25Dol-7" target="DxpoUcVML3-7-af25Dol-10">
          <mxGeometry width="50" height="50" relative="1" as="geometry">
            <mxPoint x="450" y="350" as="sourcePoint" />
            <mxPoint x="500" y="300" as="targetPoint" />
          </mxGeometry>
        </mxCell>
        <mxCell id="G4_ow6YmFgUokgy3-2_S-66" value="" style="endArrow=classic;html=1;rounded=0;exitX=1;exitY=0.5;exitDx=0;exitDy=0;entryX=0.443;entryY=0.02;entryDx=0;entryDy=0;entryPerimeter=0;" edge="1" parent="1" source="DxpoUcVML3-7-af25Dol-10" target="DxpoUcVML3-7-af25Dol-15">
          <mxGeometry width="50" height="50" relative="1" as="geometry">
            <mxPoint x="450" y="350" as="sourcePoint" />
            <mxPoint x="500" y="300" as="targetPoint" />
            <Array as="points">
              <mxPoint x="833" y="305" />
            </Array>
          </mxGeometry>
        </mxCell>
        <mxCell id="mKOPIU4uKvKC9GVuO_rV-11" style="edgeStyle=orthogonalEdgeStyle;rounded=0;orthogonalLoop=1;jettySize=auto;html=1;entryX=1;entryY=0.5;entryDx=0;entryDy=0;" edge="1" parent="1" source="G4_ow6YmFgUokgy3-2_S-81" target="xm0PBFxwntleR4CPkUEE-1">
          <mxGeometry relative="1" as="geometry">
            <mxPoint x="415" y="710" as="targetPoint" />
            <Array as="points">
              <mxPoint x="415" y="710" />
            </Array>
          </mxGeometry>
        </mxCell>
        <mxCell id="G4_ow6YmFgUokgy3-2_S-81" value="&lt;b&gt;Replay&lt;/b&gt;" style="ellipse;whiteSpace=wrap;html=1;fillColor=#d5e8d4;strokeColor=#82b366;" vertex="1" parent="1">
          <mxGeometry x="370" y="810" width="90" height="60" as="geometry" />
        </mxCell>
        <mxCell id="mKOPIU4uKvKC9GVuO_rV-3" style="edgeStyle=orthogonalEdgeStyle;rounded=0;orthogonalLoop=1;jettySize=auto;html=1;exitX=0;exitY=0.5;exitDx=0;exitDy=0;entryX=1;entryY=0.5;entryDx=0;entryDy=0;" edge="1" parent="1" source="G4_ow6YmFgUokgy3-2_S-14" target="G4_ow6YmFgUokgy3-2_S-2">
          <mxGeometry relative="1" as="geometry" />
        </mxCell>
        <mxCell id="mKOPIU4uKvKC9GVuO_rV-6" style="edgeStyle=orthogonalEdgeStyle;rounded=0;orthogonalLoop=1;jettySize=auto;html=1;entryX=0.875;entryY=0.5;entryDx=0;entryDy=0;entryPerimeter=0;" edge="1" parent="1" source="xm0PBFxwntleR4CPkUEE-1" target="G4_ow6YmFgUokgy3-2_S-28">
          <mxGeometry relative="1" as="geometry" />
        </mxCell>
        <mxCell id="mKOPIU4uKvKC9GVuO_rV-8" style="edgeStyle=orthogonalEdgeStyle;rounded=0;orthogonalLoop=1;jettySize=auto;html=1;entryX=0.625;entryY=0.2;entryDx=0;entryDy=0;entryPerimeter=0;exitX=0.379;exitY=0.987;exitDx=0;exitDy=0;exitPerimeter=0;" edge="1" parent="1" source="xm0PBFxwntleR4CPkUEE-1" target="G4_ow6YmFgUokgy3-2_S-30">
          <mxGeometry relative="1" as="geometry" />
        </mxCell>
      </root>
    </mxGraphModel>
  </diagram>
</mxfile>
